PathFileType	4	(X/Y/Z)	C:/Users/opensim2020/Desktop/walking_exp_matlab/subject03_walking04_straight_04.trc																																																																																																																																																							
DataRate	CameraRate	NumFrames	NumMarkers	Units	OrigDataRate	OrigDataStartFrame	OrigNumFrames																																																																																																																																																			
100	100	8	51	mm	100	3245	293																																																																																																																																																			
Frame#	Time	LFHD			RFHD			LBHD			RBHD			C7			T10			CLAV			STRN			RBAK			LSHO			LUPA			LELB			LFRM			LWRA			LWRB			LFIN			RSHO			RUPA			RELB			RFRM			RWRA			RWRB			RFIN			LASI			RASI			LPSI			RPSI			LTHI			LKNE			LTIB			LANK			LHEE			LTOE			RTHI			RKNE			RTIB			RANK			RHEE			RTOE			*39			*40			*41			*42			*43			*44			*45			*46			*47			*48			*49			*50		
		X1	Y1	Z1	X2	Y2	Z2	X3	Y3	Z3	X4	Y4	Z4	X5	Y5	Z5	X6	Y6	Z6	X7	Y7	Z7	X8	Y8	Z8	X9	Y9	Z9	X10	Y10	Z10	X11	Y11	Z11	X12	Y12	Z12	X13	Y13	Z13	X14	Y14	Z14	X15	Y15	Z15	X16	Y16	Z16	X17	Y17	Z17	X18	Y18	Z18	X19	Y19	Z19	X20	Y20	Z20	X21	Y21	Z21	X22	Y22	Z22	X23	Y23	Z23	X24	Y24	Z24	X25	Y25	Z25	X26	Y26	Z26	X27	Y27	Z27	X28	Y28	Z28	X29	Y29	Z29	X30	Y30	Z30	X31	Y31	Z31	X32	Y32	Z32	X33	Y33	Z33	X34	Y34	Z34	X35	Y35	Z35	X36	Y36	Z36	X37	Y37	Z37	X38	Y38	Z38	X39	Y39	Z39	X40	Y40	Z40	X41	Y41	Z41	X42	Y42	Z42	X43	Y43	Z43	X44	Y44	Z44	X45	Y45	Z45	X46	Y46	Z46	X47	Y47	Z47	X48	Y48	Z48	X49	Y49	Z49	X50	Y50	Z50	X51	Y51	Z51
																																																																																																																																																										
220	2.19	526.01648	1619.85608	-1703.50269	505.69153	1624.52136	-1571.39331	397.87958	1577.90234	-1717.41565	382.96704	1582.56543	-1586.98132	359.5134	1421.39221	-1656.5625	317.04492	1107.99109	-1653.84534	478.4256	1340.9519	-1650.05176	517.6051	1175.45264	-1652.1792	300.27267	1249.18835	-1556.38452	441.68948	1378.32141	-1808.10498	411.80234	1180.71362	-1876.36548	400.62219	1057.91577	-1887.51294	401.10736	927.48523	-1890.18933	388.11636	806.0799	-1862.18005	373.47714	818.76398	-1915.99695	354.31775	733.69495	-1906.0542	431.15622	1369.49487	-1493.88232	458.75046	1152.22168	-1418.21362	496.72336	1047.66541	-1404.10791	559.69269	926.8999	-1406.31909	624.83319	853.9577	-1444.89258	595.36823	833.09888	-1404.61804	646.40857	780.32483	-1414.23267	492.55679	950.16522	-1768.54858	479.80731	936.34332	-1530.57153	328.02597	967.67731	-1726.59412	323.25876	970.41119	-1576.92786	473.57004	647.69336	-1811.86499	510.21478	474.34427	-1769.9978	489.27579	279.46982	-1770.85278	507.15573	69.76748	-1731.45569	471.1582	35.54901	-1691.70361	660.94507	39.31526	-1719.17456	395.8678	641.9978	-1491.9696	385.62842	461.7482	-1518.82532	244.38213	324.24615	-1517.36902	101.88247	163.41263	-1563.26868	53.20338	166.40515	-1618.75818	175.68163	38.62824	-1578.67078	438.66379	1683.74438	-1665.39392	NaN	NaN	NaN	NaN	NaN	NaN	NaN	NaN	NaN	NaN	NaN	NaN	NaN	NaN	NaN	NaN	NaN	NaN	NaN	NaN	NaN	NaN	NaN	NaN	NaN	NaN	NaN	NaN	NaN	NaN	NaN	NaN	NaN
221	2.2	536.19238	1620.44836	-1703.19458	515.27985	1624.85181	-1571.51331	407.97275	1579.31152	-1718.26331	392.39856	1583.65381	-1587.87158	368.86957	1422.08179	-1657.92773	327.04974	1108.67334	-1655.67419	488.11246	1342.02185	-1651.11377	527.43103	1176.53503	-1653.41748	310.30472	1249.8728	-1557.48035	451.81754	1379.79907	-1808.94739	423.39404	1182.36462	-1877.88159	413.20819	1059.41199	-1888.78992	415.19791	928.95172	-1890.94946	403.54529	807.70953	-1862.83838	389.18295	819.80853	-1916.56274	370.05695	734.56158	-1906.26074	440.2728	1370.68652	-1495.20972	466.77911	1153.10693	-1419.83582	503.45023	1048.1355	-1405.88953	565.15021	926.65222	-1408.06934	629.87329	853.05048	-1446.58826	599.74042	832.37201	-1406.33557	649.78662	778.41895	-1416.31042	502.05737	950.45184	-1770.32153	489.3566	937.64819	-1532.4989	338.18069	968.77112	-1728.02332	333.00555	971.54474	-1578.38257	478.72702	647.3606	-1812.90918	514.07819	473.81836	-1770.62671	491.54758	279.40433	-1770.74402	507.7157	69.93439	-1730.61182	471.35324	35.8398	-1691.25598	661.62927	38.74747	-1719.25842	410.54059	641.53107	-1492.71179	403.96594	460.9267	-1518.70508	260.46707	326.51056	-1517.63245	113.98951	169.59859	-1562.93213	66.11876	175.99161	-1619.00745	177.97675	40.18245	-1579.39502	449.20071	1684.68958	-1665.70862	NaN	NaN	NaN	NaN	NaN	NaN	NaN	NaN	NaN	NaN	NaN	NaN	NaN	NaN	NaN	NaN	NaN	NaN	NaN	NaN	NaN	NaN	NaN	NaN	NaN	NaN	NaN	NaN	NaN	NaN	NaN	NaN	NaN
222	2.21	546.37909	1620.83533	-1703.07739	524.78467	1624.90393	-1571.48621	418.07104	1580.42212	-1719.09485	401.798	1584.44836	-1588.75952	378.09076	1422.53601	-1659.12708	336.87402	1109.13098	-1657.69861	497.61264	1342.61865	-1652.09167	537.27588	1177.29077	-1654.57434	319.77673	1250.39172	-1558.8811	461.98468	1381.00439	-1809.87195	434.94989	1183.72559	-1879.4292	425.76035	1060.53552	-1890.13733	429.40402	930.13416	-1891.82617	419.30057	808.86237	-1863.29346	405.08261	820.53528	-1917.16235	386.50073	735.05609	-1906.49475	449.48923	1371.3385	-1496.46399	474.61737	1153.67615	-1421.30688	510.27621	1048.25269	-1407.62646	570.70203	926.0957	-1409.78992	634.60748	851.65424	-1448.23889	604.24829	831.33514	-1407.97559	653.47028	776.29669	-1418.60815	511.59509	950.36914	-1771.87744	499.22226	938.90686	-1534.1344	348.09937	969.49939	-1729.51221	342.64575	972.14105	-1579.84058	483.90735	646.98401	-1813.89124	518.05255	473.1098	-1771.1449	493.95578	279.34167	-1770.72485	507.33292	70.93274	-1730.25159	471.72614	35.88851	-1690.73584	662.25568	38.19382	-1719.10767	425.01697	640.71478	-1493.53369	422.47931	460.06769	-1518.93176	277.33124	328.33505	-1517.85352	126.69156	175.75575	-1562.78882	78.95567	185.15477	-1618.45728	184.1402	43.89481	-1580.13953	459.58176	1685.42188	-1665.89099	NaN	NaN	NaN	NaN	NaN	NaN	NaN	NaN	NaN	NaN	NaN	NaN	NaN	NaN	NaN	NaN	NaN	NaN	NaN	NaN	NaN	NaN	NaN	NaN	NaN	NaN	NaN	NaN	NaN	NaN	NaN	NaN	NaN
223	2.22	556.58521	1621.09302	-1702.92078	534.27899	1624.84131	-1571.40002	428.19464	1581.2616	-1719.78113	411.19211	1584.83105	-1589.58667	387.6088	1422.98352	-1660.37256	346.54425	1109.31458	-1659.62769	506.99542	1343.07861	-1653.03308	547.01263	1177.82068	-1655.69031	329.1283	1250.42236	-1560.41516	472.00867	1381.71289	-1810.7417	446.50644	1184.6687	-1881.04285	438.3013	1061.32263	-1891.65833	443.81284	930.99585	-1892.87756	435.50055	809.76862	-1863.96057	421.21591	820.84833	-1917.85815	404.13403	735.72192	-1906.60034	458.29584	1371.69482	-1497.68994	482.35574	1153.73645	-1422.64685	516.8988	1047.90247	-1409.1311	576.10999	925.06952	-1411.31775	639.40424	849.92438	-1449.82312	608.68213	829.89502	-1409.54138	656.90533	773.73895	-1420.70886	521.20123	950.02441	-1773.22485	509.08276	939.54144	-1535.42017	357.75986	969.92419	-1730.93396	351.83438	972.3244	-1581.25281	489.2435	646.94818	-1814.60327	522.20984	472.4881	-1771.72266	496.68951	279.38937	-1770.78638	507.53796	70.79385	-1730.15527	472.00848	35.92385	-1690.40198	662.76227	37.75253	-1718.9978	439.37469	639.72522	-1494.20264	440.92831	459.20151	-1519.29968	294.62482	329.96863	-1517.88367	140.06897	181.7706	-1563.11597	92.27568	192.74767	-1618.55286	194.87646	49.08846	-1579.77258	469.88873	1685.9209	-1665.99707	NaN	NaN	NaN	NaN	NaN	NaN	NaN	NaN	NaN	NaN	NaN	NaN	NaN	NaN	NaN	NaN	NaN	NaN	NaN	NaN	NaN	NaN	NaN	NaN	NaN	NaN	NaN	NaN	NaN	NaN	NaN	NaN	NaN
224	2.23	566.71429	1621.38062	-1702.63232	543.60016	1624.69592	-1571.20605	438.20514	1582.06213	-1720.45972	420.46909	1585.18726	-1590.38879	396.60181	1423.07263	-1661.80823	356.14355	1109.28247	-1661.35095	516.18762	1343.41211	-1653.88318	556.36267	1178.08386	-1656.6217	337.98703	1250.30396	-1562.23877	482.05081	1382.20837	-1811.67468	457.98257	1185.13855	-1882.65527	450.81958	1061.72461	-1893.27649	458.20587	931.43982	-1894.06812	451.87982	810.25513	-1864.68848	437.50174	820.89746	-1918.61414	421.37149	734.90942	-1907.03943	466.98773	1371.70508	-1498.71179	490.08334	1153.43274	-1423.98083	523.68481	1047.15039	-1410.65869	581.62842	923.75751	-1412.8916	643.83502	847.56323	-1451.26709	613.00757	828.14551	-1411.00842	660.1347	770.81665	-1422.82239	530.69965	949.66229	-1774.39966	518.20233	939.68762	-1536.46106	367.04001	970.20282	-1732.24988	360.85257	972.02411	-1582.55469	495.06772	647.07715	-1815.9823	526.47284	472.1059	-1772.60706	499.026	279.41263	-1771.36304	508.23758	70.27453	-1729.5166	471.93936	36.10426	-1690.36279	662.97302	37.47498	-1718.97754	453.3363	638.8075	-1494.96533	459.50381	458.6066	-1519.72217	312.285	331.64929	-1518.14441	154.39171	187.60167	-1564.06775	106.4497	198.6893	-1619.59924	208.49297	54.60427	-1578.99329	479.96494	1686.30664	-1666.00562	NaN	NaN	NaN	NaN	NaN	NaN	NaN	NaN	NaN	NaN	NaN	NaN	NaN	NaN	NaN	NaN	NaN	NaN	NaN	NaN	NaN	NaN	NaN	NaN	NaN	NaN	NaN	NaN	NaN	NaN	NaN	NaN	NaN
225	2.24	576.89307	1621.72351	-1702.30481	552.98639	1624.63123	-1571.01929	448.35001	1582.92883	-1721.05591	429.75406	1585.56763	-1591.11987	406.00327	1423.32141	-1663.09253	365.46298	1109.3446	-1663.0271	525.22449	1343.77637	-1654.70313	565.56989	1178.28613	-1657.39172	346.55905	1250.0741	-1564.39539	491.86646	1382.36072	-1812.5885	469.53995	1185.24414	-1884.15698	463.35959	1061.76697	-1894.98132	472.69235	931.64508	-1895.26941	468.5437	810.59509	-1865.52429	453.86227	820.62994	-1919.3783	439.87308	734.47363	-1907.43579	475.46268	1371.46851	-1499.5603	497.5567	1152.68909	-1425.33264	530.45905	1046.13562	-1412.005	586.91199	922.01093	-1414.25452	648.42059	845.14484	-1452.724	617.31122	825.99622	-1412.41382	663.20697	767.58868	-1424.78735	540.05847	949.43683	-1775.28101	526.97845	939.48816	-1537.08997	376.11633	970.43005	-1733.42114	369.68051	971.35645	-1583.7074	501.49368	647.52545	-1817.31677	530.80627	472.02924	-1773.69495	501.26736	279.58859	-1772.12976	508.07895	70.43839	-1729.67651	471.97366	36.06032	-1690.40881	663.07806	37.26037	-1719.06287	467.07907	638.2749	-1495.56616	478.1369	458.41116	-1520.1438	330.23944	333.57407	-1519.11267	170.11186	192.48042	-1564.98718	121.97049	203.29555	-1620.88721	223.83334	59.68158	-1577.95325	NaN	NaN	NaN	NaN	NaN	NaN	NaN	NaN	NaN	NaN	NaN	NaN	NaN	NaN	NaN	NaN	NaN	NaN	NaN	NaN	NaN	NaN	NaN	NaN	NaN	NaN	NaN	NaN	NaN	NaN	NaN	NaN	NaN	NaN	NaN	NaN
226	2.25	587.05853	1622.07678	-1701.89917	562.39001	1624.57654	-1570.71057	458.52853	1583.91199	-1721.60754	439.14209	1586.04871	-1591.79431	414.91879	1423.5155	-1664.2218	374.58795	1109.5896	-1664.35828	534.07611	1344.10754	-1655.34875	574.55249	1178.64465	-1657.99475	354.66418	1250.18872	-1566.80957	501.53918	1382.28979	-1813.52588	481.19904	1185.01953	-1885.56104	476.00549	1061.57959	-1896.64294	487.35767	931.60077	-1896.44226	485.28809	810.57007	-1866.01501	470.49429	820.19647	-1920.16357	459.07306	733.90027	-1907.87439	483.75293	1371.05554	-1500.14465	504.88528	1151.70679	-1426.61047	537.17938	1044.81848	-1413.3158	592.18713	920.01379	-1415.69495	652.66339	842.25922	-1454.17651	621.2962	823.59241	-1413.80554	666.21368	764.2746	-1426.58643	549.49658	949.59387	-1776.08533	535.56726	939.24243	-1537.83203	384.95767	970.59277	-1734.34277	378.39206	970.56702	-1584.79663	508.30701	648.01678	-1818.29236	535.2038	472.19495	-1774.84631	503.60904	279.79086	-1772.9447	507.61929	71.06187	-1730.23145	471.88913	36.19526	-1690.63318	663.20618	37.08049	-1719.11877	480.70541	638.43103	-1496.13708	496.60956	458.71545	-1520.52319	348.48346	335.50024	-1520.30042	186.8578	196.41521	-1565.9696	138.56712	206.80525	-1622.33313	240.88028	63.96554	-1576.7467	500.2623	1687.29419	-1665.80176	NaN	NaN	NaN	NaN	NaN	NaN	NaN	NaN	NaN	NaN	NaN	NaN	NaN	NaN	NaN	NaN	NaN	NaN	NaN	NaN	NaN	NaN	NaN	NaN	NaN	NaN	NaN	NaN	NaN	NaN	NaN	NaN	NaN
227	2.26	597.21521	1622.36206	-1701.44641	571.74408	1624.42346	-1570.4021	468.58676	1584.9353	-1722.16125	448.42953	1586.69446	-1592.5144	424.1391	1424.17151	-1665.60986	383.81357	1109.82202	-1665.48242	542.91876	1344.41931	-1656.00049	583.39691	1178.91162	-1658.50916	362.87555	1249.98865	-1568.89709	511.08862	1382.09058	-1814.4375	492.89899	1184.68628	-1886.76392	488.80884	1061.21985	-1898.29285	502.13168	931.48853	-1897.68835	505.04883	812.67621	-1868.9624	487.25211	819.71069	-1920.9115	478.84073	733.39478	-1908.45398	491.81192	1370.45508	-1500.74792	512.15552	1150.68896	-1427.96606	543.96228	1043.35059	-1414.62708	597.31323	917.84497	-1417.11389	656.79492	839.22375	-1455.53015	625.17584	821.07916	-1415.0979	668.64392	760.87988	-1428.14917	558.60706	949.92377	-1776.90063	544.18329	938.98517	-1538.10364	393.41968	971.02472	-1735.19116	386.99442	969.98578	-1585.77197	515.4201	648.44751	-1818.875	539.55383	472.25629	-1775.80933	506.07251	280.00183	-1773.6156	507.8382	71.11423	-1730.33655	472.15198	36.00851	-1690.45007	663.3443	36.89815	-1719.12512	494.21271	638.94373	-1496.68738	515.06311	459.74158	-1520.91223	367.11969	337.20197	-1521.43604	204.57954	199.25827	-1567.09705	156.01169	208.97586	-1623.81653	259.54657	67.62159	-1575.87769	NaN	NaN	NaN	NaN	NaN	NaN	NaN	NaN	NaN	NaN	NaN	NaN	NaN	NaN	NaN	NaN	NaN	NaN	NaN	NaN	NaN	NaN	NaN	NaN	NaN	NaN	NaN	NaN	NaN	NaN	NaN	NaN	NaN	NaN	NaN	NaN
